<mxfile host="app.diagrams.net" agent="Mozilla/5.0 (Windows NT 10.0; Win64; x64) AppleWebKit/537.36 (KHTML, like Gecko) Chrome/130.0.0.0 Safari/537.36" version="24.8.6">
  <diagram id="e_u2dvvKTpSE7GeCOZ3W" name="Page-1">
    <mxGraphModel dx="1050" dy="578" grid="1" gridSize="10" guides="1" tooltips="1" connect="1" arrows="1" fold="1" page="1" pageScale="1" pageWidth="827" pageHeight="1169" math="0" shadow="0">
      <root>
        <mxCell id="0" />
        <mxCell id="1" parent="0" />
        <mxCell id="cSsbPW50Kq6JUkMz0H1c-2" value="" style="ellipse;html=1;shape=startState;fillColor=#000000;strokeColor=#ff0000;" parent="1" vertex="1">
          <mxGeometry x="384" y="20" width="30" height="30" as="geometry" />
        </mxCell>
        <mxCell id="cSsbPW50Kq6JUkMz0H1c-3" value="" style="edgeStyle=orthogonalEdgeStyle;html=1;verticalAlign=bottom;endArrow=open;endSize=8;strokeColor=#ff0000;rounded=0;" parent="1" source="cSsbPW50Kq6JUkMz0H1c-2" edge="1">
          <mxGeometry relative="1" as="geometry">
            <mxPoint x="400" y="80" as="targetPoint" />
            <Array as="points">
              <mxPoint x="400" y="65" />
              <mxPoint x="401" y="65" />
            </Array>
          </mxGeometry>
        </mxCell>
        <mxCell id="cSsbPW50Kq6JUkMz0H1c-4" value="Log in to system" style="rounded=1;whiteSpace=wrap;html=1;" parent="1" vertex="1">
          <mxGeometry x="339" y="80" width="120" height="30" as="geometry" />
        </mxCell>
        <mxCell id="cSsbPW50Kq6JUkMz0H1c-5" value="Is user logged in?" style="rhombus;whiteSpace=wrap;html=1;" parent="1" vertex="1">
          <mxGeometry x="329" y="130" width="130" height="60" as="geometry" />
        </mxCell>
        <mxCell id="cSsbPW50Kq6JUkMz0H1c-7" value="" style="endArrow=classic;html=1;rounded=0;exitX=0.508;exitY=1;exitDx=0;exitDy=0;exitPerimeter=0;" parent="1" source="cSsbPW50Kq6JUkMz0H1c-4" edge="1">
          <mxGeometry width="50" height="50" relative="1" as="geometry">
            <mxPoint x="320" y="320" as="sourcePoint" />
            <mxPoint x="400" y="130" as="targetPoint" />
          </mxGeometry>
        </mxCell>
        <mxCell id="cSsbPW50Kq6JUkMz0H1c-8" value="" style="endArrow=classic;html=1;rounded=0;" parent="1" edge="1">
          <mxGeometry width="50" height="50" relative="1" as="geometry">
            <mxPoint x="330" y="160" as="sourcePoint" />
            <mxPoint x="240" y="160" as="targetPoint" />
          </mxGeometry>
        </mxCell>
        <mxCell id="cSsbPW50Kq6JUkMz0H1c-9" value="System Detects Event (like/friend request)" style="rounded=1;whiteSpace=wrap;html=1;" parent="1" vertex="1">
          <mxGeometry x="80" y="139" width="160" height="42" as="geometry" />
        </mxCell>
        <mxCell id="cSsbPW50Kq6JUkMz0H1c-11" value="Create Notification" style="rounded=1;whiteSpace=wrap;html=1;" parent="1" vertex="1">
          <mxGeometry x="80" y="240" width="160" height="40" as="geometry" />
        </mxCell>
        <mxCell id="cSsbPW50Kq6JUkMz0H1c-14" value="" style="endArrow=classic;html=1;rounded=0;exitX=0.5;exitY=1;exitDx=0;exitDy=0;exitPerimeter=0;" parent="1" source="cSsbPW50Kq6JUkMz0H1c-9" edge="1">
          <mxGeometry width="50" height="50" relative="1" as="geometry">
            <mxPoint x="160" y="300" as="sourcePoint" />
            <mxPoint x="160" y="240" as="targetPoint" />
          </mxGeometry>
        </mxCell>
        <mxCell id="cSsbPW50Kq6JUkMz0H1c-21" value="Yes" style="text;html=1;align=center;verticalAlign=middle;resizable=0;points=[];autosize=1;strokeColor=none;fillColor=none;" parent="1" vertex="1">
          <mxGeometry x="260" y="110" width="40" height="30" as="geometry" />
        </mxCell>
        <mxCell id="cSsbPW50Kq6JUkMz0H1c-36" value="" style="endArrow=classic;html=1;rounded=0;" parent="1" edge="1">
          <mxGeometry width="50" height="50" relative="1" as="geometry">
            <mxPoint x="460" y="160" as="sourcePoint" />
            <mxPoint x="530" y="160" as="targetPoint" />
          </mxGeometry>
        </mxCell>
        <mxCell id="cSsbPW50Kq6JUkMz0H1c-37" value="No" style="text;html=1;align=center;verticalAlign=middle;resizable=0;points=[];autosize=1;strokeColor=none;fillColor=none;" parent="1" vertex="1">
          <mxGeometry x="470" y="118" width="40" height="30" as="geometry" />
        </mxCell>
        <mxCell id="cSsbPW50Kq6JUkMz0H1c-38" value="show login error" style="rounded=1;whiteSpace=wrap;html=1;" parent="1" vertex="1">
          <mxGeometry x="530" y="130" width="120" height="60" as="geometry" />
        </mxCell>
        <mxCell id="cSsbPW50Kq6JUkMz0H1c-40" value="" style="ellipse;html=1;shape=endState;fillColor=#000000;strokeColor=#ff0000;" parent="1" vertex="1">
          <mxGeometry x="590" y="430" height="30" as="geometry" />
        </mxCell>
        <mxCell id="ILmRY9t9ikbFDp1ylnBZ-4" value="" style="endArrow=classic;html=1;rounded=0;exitX=0.492;exitY=1;exitDx=0;exitDy=0;exitPerimeter=0;entryX=0.5;entryY=0;entryDx=0;entryDy=0;" parent="1" source="cSsbPW50Kq6JUkMz0H1c-11" edge="1">
          <mxGeometry width="50" height="50" relative="1" as="geometry">
            <mxPoint x="160.04999999999995" y="360" as="sourcePoint" />
            <mxPoint x="160" y="370" as="targetPoint" />
          </mxGeometry>
        </mxCell>
        <mxCell id="8oVrIRrRadPJnCO46N0i-4" value="Display Notification to User" style="rounded=1;whiteSpace=wrap;html=1;" parent="1" vertex="1">
          <mxGeometry x="80" y="370" width="160" height="50" as="geometry" />
        </mxCell>
        <mxCell id="uljT96sFx1SeSEMwCfUZ-1" value="" style="endArrow=classic;html=1;rounded=0;exitX=0.5;exitY=1;exitDx=0;exitDy=0;" parent="1" source="8oVrIRrRadPJnCO46N0i-4" target="mD5LJ2pc1BLlnbWfuHIx-1" edge="1">
          <mxGeometry width="50" height="50" relative="1" as="geometry">
            <mxPoint x="170" y="420" as="sourcePoint" />
            <mxPoint x="170" y="480" as="targetPoint" />
            <Array as="points" />
          </mxGeometry>
        </mxCell>
        <mxCell id="ILmRY9t9ikbFDp1ylnBZ-6" value="" style="ellipse;html=1;shape=endState;fillColor=#000000;strokeColor=#ff0000;" parent="1" vertex="1">
          <mxGeometry x="565" y="580" width="50" height="50" as="geometry" />
        </mxCell>
        <mxCell id="OEbQiBnzaZh2S4P4qz-J-2" value="" style="endArrow=classic;html=1;rounded=0;exitX=0.5;exitY=1;exitDx=0;exitDy=0;exitPerimeter=0;entryX=0.6;entryY=0;entryDx=0;entryDy=0;entryPerimeter=0;" parent="1" source="cSsbPW50Kq6JUkMz0H1c-38" edge="1" target="ILmRY9t9ikbFDp1ylnBZ-6">
          <mxGeometry width="50" height="50" relative="1" as="geometry">
            <mxPoint x="470" y="400" as="sourcePoint" />
            <mxPoint x="590" y="510" as="targetPoint" />
            <Array as="points">
              <mxPoint x="590" y="380" />
            </Array>
          </mxGeometry>
        </mxCell>
        <mxCell id="mD5LJ2pc1BLlnbWfuHIx-1" value="User Views Notification" style="rounded=1;whiteSpace=wrap;html=1;arcSize=17;" parent="1" vertex="1">
          <mxGeometry x="80" y="470" width="160" height="60" as="geometry" />
        </mxCell>
        <mxCell id="mD5LJ2pc1BLlnbWfuHIx-2" value="" style="endArrow=classic;html=1;rounded=0;entryX=0.1;entryY=0.6;entryDx=0;entryDy=0;entryPerimeter=0;exitX=1;exitY=0.5;exitDx=0;exitDy=0;exitPerimeter=0;" parent="1" source="JyvfV8V7QQmE8m8eQMZE-1" target="ILmRY9t9ikbFDp1ylnBZ-6" edge="1">
          <mxGeometry width="50" height="50" relative="1" as="geometry">
            <mxPoint x="330" y="480" as="sourcePoint" />
            <mxPoint x="380" y="430" as="targetPoint" />
            <Array as="points" />
          </mxGeometry>
        </mxCell>
        <mxCell id="JyvfV8V7QQmE8m8eQMZE-1" value="End Viewing Notification" style="rounded=1;whiteSpace=wrap;html=1;" vertex="1" parent="1">
          <mxGeometry x="80" y="600" width="160" height="60" as="geometry" />
        </mxCell>
        <mxCell id="JyvfV8V7QQmE8m8eQMZE-2" value="" style="endArrow=classic;html=1;rounded=0;exitX=0.5;exitY=1;exitDx=0;exitDy=0;exitPerimeter=0;entryX=0.5;entryY=0;entryDx=0;entryDy=0;entryPerimeter=0;" edge="1" parent="1" source="mD5LJ2pc1BLlnbWfuHIx-1" target="JyvfV8V7QQmE8m8eQMZE-1">
          <mxGeometry width="50" height="50" relative="1" as="geometry">
            <mxPoint x="350" y="550" as="sourcePoint" />
            <mxPoint x="430" y="640" as="targetPoint" />
          </mxGeometry>
        </mxCell>
      </root>
    </mxGraphModel>
  </diagram>
</mxfile>
